<?xml version="1.0" ?><!DOCTYPE svg  PUBLIC '-//W3C//DTD SVG 1.1//EN'  'http://www.w3.org/Graphics/SVG/1.1/DTD/svg11.dtd'><svg class="icon" height="128.00px" version="1.1" viewBox="0 0 1024 1024" width="128px" xmlns="http://www.w3.org/2000/svg"><path d="M909.06 971.76H114.94c-34.57 0-62.69-28.12-62.69-62.69V114.94c0-34.57 28.12-62.69 62.69-62.69h794.12c34.57 0 62.69 28.12 62.69 62.69v794.12c0.01 34.57-28.12 62.7-62.69 62.7zM114.94 94.04c-11.52 0-20.9 9.38-20.9 20.9v794.12c0 11.53 9.38 20.9 20.9 20.9h794.12c11.53 0 20.9-9.37 20.9-20.9V114.94c0-11.52-9.37-20.9-20.9-20.9H114.94z" fill="#333333"/><path d="M741.9 341.83c-6.9 0-13.63-3.41-17.63-9.64l-30.71-48.06c-0.63-1-2.22-2-4.33-2H334.79c-2.11 0-3.7 1-4.34 1.99l-30.71 48.07c-6.2 9.71-19.09 12.58-28.87 6.36-9.72-6.21-12.57-19.14-6.36-28.87l30.71-48.06c8.51-13.33 23.3-21.29 39.56-21.29h354.44c16.24 0 31.04 7.96 39.55 21.3l30.71 48.05c6.2 9.72 3.37 22.65-6.37 28.87a20.69 20.69 0 0 1-11.21 3.28z" fill="#333333"/><path d="M512 783.67c-11.54 0-20.9-9.35-20.9-20.9V261.22c0-11.54 9.36-20.9 20.9-20.9 11.55 0 20.9 9.36 20.9 20.9v501.55c0 11.56-9.35 20.9-20.9 20.9z" fill="#333333"/></svg>